<svg xmlns="http://www.w3.org/2000/svg" width="532" height="352" viewBox="0 0 266 176"><path d="M29 3.5C14.934 3.5 3.5 14.934 3.5 29c0 14.065 11.434 25.5 25.5 25.5 8.385 0 15.834-4.065 20.484-10.328 6.436 4.45 14.135 8.84 20.392 13.17A25.346 25.346 0 0 0 66.5 70c0 14.066 11.434 25.5 25.5 25.5 1.27 0 2.52-.096 3.74-.276 1.938 8.571 4.663 18.692 6.58 27.17C91.489 125.335 83.5 135.246 83.5 147c0 14.065 11.435 25.5 25.5 25.5 14.066 0 25.5-11.435 25.5-25.5a25.7 25.7 0 0 0-.137-2.648c8.527-1.007 18.555-2.776 27.763-3.752 2.558 11.378 12.733 19.9 24.874 19.9 14.066 0 25.5-11.435 25.5-25.5 0-6.749-2.637-12.887-6.93-17.452 4.575-4.575 9.917-9.939 14.595-15.416 4.494 3.96 10.386 6.368 16.835 6.368 14.065 0 25.5-11.435 25.5-25.5 0-14.066-11.435-25.5-25.5-25.5-10.573 0-19.658 6.462-23.518 15.646l-18.97-8.13c.64-2.23.988-4.582.988-7.016 0-14.065-11.435-25.5-25.5-25.5-14.066 0-25.5 11.435-25.5 25.5 0 .895.047 1.778.137 2.649-8.527 1.007-18.555 2.776-27.763 3.751C114.316 53.023 104.141 44.5 92 44.5c-8.386 0-15.834 4.065-20.483 10.328-6.436-4.45-14.135-8.84-20.392-13.17A25.346 25.346 0 0 0 54.5 29C54.5 14.934 43.065 3.5 29 3.5zm0 3c12.444 0 22.5 10.055 22.5 22.5 0 12.444-10.056 22.5-22.5 22.5C16.555 51.5 6.5 41.444 6.5 29 6.5 16.555 16.555 6.5 29 6.5zm1.085 11.236c-4.37 0-8.39 3.462-8.39 11.558 0 7.656 3.668 10.97 7.804 10.97 3.696 0 6.806-2.816 6.806-7.274 0-4.635-2.583-6.806-6.22-6.806-1.408 0-3.286.88-4.459 2.347.176-5.456 2.23-7.333 4.723-7.333 1.261 0 2.581.703 3.344 1.583l2.288-2.58c-1.32-1.35-3.227-2.465-5.896-2.465zm-.82 11.5c1.877 0 3.108 1.202 3.108 3.754 0 2.67-1.349 4.018-2.962 4.018-1.819 0-3.285-1.526-3.696-5.486.998-1.643 2.376-2.287 3.55-2.287zM170 35.5c12.444 0 22.5 10.056 22.5 22.5 0 12.445-10.056 22.5-22.5 22.5-12.445 0-22.5-10.055-22.5-22.5 0-12.444 10.055-22.5 22.5-22.5zm-5.148 11.426-.587 10.56 1.965 1.29c1.262-.82 1.966-1.143 3.257-1.143 2.2 0 3.666 1.409 3.666 3.931 0 2.552-1.583 3.99-3.842 3.99-2.024 0-3.55-.998-4.781-2.201l-1.995 2.758c1.613 1.614 3.9 2.962 7.333 2.962 4.018 0 7.598-2.786 7.598-7.626 0-4.722-3.051-6.893-6.689-6.893-.997 0-1.73.204-2.61.615l.41-4.606h7.891v-3.637h-11.616zM92 47.5c12.444 0 22.5 10.056 22.5 22.5 0 12.445-10.056 22.5-22.5 22.5-12.445 0-22.5-10.055-22.5-22.5 0-12.444 10.055-22.5 22.5-22.5zm.175 11.631-8.094 13.172v2.933h9.268v5.632h4.02v-5.632h2.55V71.95h-2.55V59.131h-5.194zM237 60.5c12.444 0 22.5 10.055 22.5 22.5 0 12.444-10.056 22.5-22.5 22.5S214.5 95.444 214.5 83c0-12.445 10.056-22.5 22.5-22.5zM93.38 63.004h.117c-.06 1.291-.148 3.257-.148 4.518v4.428h-5.075l3.374-5.396a65.74 65.74 0 0 0 1.731-3.55zm51.748.607C147.69 74.983 157.862 83.5 170 83.5c1.27 0 2.52-.097 3.74-.277 1.938 8.571 4.663 18.692 6.58 27.17-10.832 2.941-18.82 12.852-18.82 24.606 0 .89.047 1.77.137 2.637-9.364 1-19.403 2.77-27.765 3.751C131.31 130.017 121.137 121.5 109 121.5c-1.27 0-2.52.097-3.74.277-1.938-8.572-4.663-18.693-6.58-27.17C109.511 91.665 117.5 81.755 117.5 70c0-.89-.047-1.77-.137-2.636 9.364-1 19.403-2.771 27.765-3.753zm48.391 4.243 18.97 8.13A25.43 25.43 0 0 0 211.5 83c0 6.534 2.471 12.499 6.524 17.015-4.62 5.43-10 10.838-14.63 15.469A25.384 25.384 0 0 0 187 109.5c-1.27 0-2.52.097-3.74.277-1.938-8.572-4.663-18.693-6.58-27.17 7.614-2.068 13.823-7.576 16.839-14.753zm42.732 4.278c-1.378.88-2.874 1.438-5.044 1.848v2.67h3.93v13.728h-4.664v3.49h13.054v-3.49h-4.078V72.132h-3.198zm-49.25 40.368c12.444 0 22.5 10.056 22.5 22.5s-10.056 22.5-22.5 22.5c-12.445 0-22.5-10.056-22.5-22.5s10.055-22.5 22.5-22.5zm-.485 11.442c-2.963 0-4.9 1.143-6.894 3.284l2.347 2.347c1.114-1.203 2.406-2.228 3.99-2.228 2.083 0 3.256 1.318 3.256 3.518 0 3.344-3.49 7.422-9.386 12.702v2.493h14.548v-3.637h-4.693c-1.027 0-2.464.117-3.55.234 3.96-3.872 7.217-8.095 7.217-12.026 0-4.048-2.729-6.687-6.835-6.687zM109 124.5c12.445 0 22.5 10.056 22.5 22.5s-10.055 22.5-22.5 22.5c-12.444 0-22.5-10.056-22.5-22.5s10.056-22.5 22.5-22.5zm-.294 11.235c-2.552 0-4.634 1.028-6.511 2.67l2.2 2.64c1.29-1.202 2.551-1.907 4.106-1.907 1.848 0 2.905.999 2.905 2.7 0 1.936-1.292 3.313-5.281 3.313v3.08c4.723 0 5.984 1.35 5.984 3.462 0 1.966-1.496 3.052-3.696 3.052-1.965 0-3.55-.969-4.84-2.23l-2.024 2.728c1.525 1.73 3.844 3.022 7.276 3.022 4.136 0 7.626-2.319 7.626-6.308 0-2.845-1.878-4.663-4.313-5.338v-.146c2.288-.91 3.608-2.612 3.608-4.959 0-3.696-2.845-5.779-7.04-5.779z"/></svg>